<?xml version="1.0" encoding="UTF-8"?>
<svg xmlns="http://www.w3.org/2000/svg" xmlns:xlink="http://www.w3.org/1999/xlink" version="1.1" id="Layer_1" x="0px" y="0px" viewBox="0 0 216.4 216.4" style="enable-background:new 0 0 216.4 216.4;" xml:space="preserve">
<style type="text/css">
	.st0{fill:#DCB95B;}
	.st1{fill:#242F56;}
	.st2{fill:#FFFFFF;}
	.st3{fill:#D1B761;}
</style>
<g>
	<g>
		<circle class="st0" cx="108.2" cy="108.2" r="100.9"></circle>
	</g>
	<g>
		<circle class="st1" cx="108.2" cy="108.2" r="75.9"></circle>
	</g>
	<g>
		<path class="st0" d="M108.2,179.5c-39.3,0-71.3-32-71.3-71.3s32-71.3,71.3-71.3s71.3,32,71.3,71.3S147.5,179.5,108.2,179.5z     M108.2,38.8c-38.3,0-69.4,31.1-69.4,69.4c0,38.3,31.1,69.4,69.4,69.4s69.4-31.1,69.4-69.4C177.6,69.9,146.5,38.8,108.2,38.8z"></path>
	</g>
	<g>
		<path class="st1" d="M32.7,151c2.3-1.4,6.2-1.6,8.5,2.4c2,3.3,1.3,6.6-1.8,8.4c-3.1,1.8-6.8,1.1-8.8-2.3    C28.3,155.7,30.3,152.4,32.7,151z M37.8,160.3c3-1.8,3.9-4.6,2.6-6.8c-0.9-1.5-2.8-2.8-6.2-0.8c-2.8,1.6-4.1,4.5-2.6,7.1    C32.2,160.7,33.9,162.6,37.8,160.3z"></path>
		<path class="st1" d="M41.9,167.6c-1.2,0.9-2.1,1.7-2.5,2.2c-0.3,0.3-0.5,0.6-0.3,1c0.1,0.2,0.3,0.5,0.4,0.6    c0.1,0.2,0.1,0.2,0.1,0.3c-0.1,0.1-0.2,0-0.3-0.2c-0.6-0.8-1.2-1.6-1.5-1.9c-0.3-0.3-0.9-1-1.3-1.5c-0.1-0.2-0.2-0.3-0.1-0.4    c0.1-0.1,0.1,0,0.2,0.1c0.1,0.2,0.3,0.3,0.4,0.4c0.2,0.2,0.6,0,1-0.2c0.6-0.4,1.5-1.1,2.6-2l2.1-1.7c1.8-1.5,2.2-1.8,2.5-2.1    c0.4-0.4,0.5-0.6,0.3-1.1c-0.1-0.1-0.2-0.3-0.3-0.5c-0.1-0.1-0.1-0.2-0.1-0.3c0.1-0.1,0.2,0,0.3,0.2c0.3,0.3,0.5,0.7,0.8,1    c0.2,0.3,0.5,0.6,0.6,0.8c0.4,0.5,2.4,2.9,2.6,3.2c0.2,0.2,0.3,0.4,0.5,0.5c0.1,0.1,0.2,0.1,0.2,0.1c0,0,0,0.1,0,0.2    c-0.1,0.1-0.3,0.1-0.6,0.3c-0.1,0.1-0.9,0.6-1,0.7c-0.1,0.1-0.2,0.1-0.3,0c-0.1-0.1,0-0.2,0.1-0.3c0.1-0.1,0.3-0.2,0.4-0.4    c0.1-0.2,0.1-0.6-0.3-1.1l-1.5-1.9c-0.1-0.1-0.1-0.1-0.3,0l-3,2.5c-0.1,0.1-0.1,0.1,0,0.2l1.3,1.5c0.2,0.2,0.3,0.4,0.5,0.5    c0.2,0.2,0.4,0.4,0.6,0.3c0.1,0,0.2,0,0.3,0.1c0,0,0,0.1-0.1,0.2c-0.1,0.1-0.4,0.2-0.8,0.5c-0.3,0.2-0.8,0.6-0.9,0.7    c-0.1,0.1-0.2,0.2-0.3,0.1c-0.1-0.1,0-0.2,0.1-0.2c0.1-0.1,0.2-0.2,0.3-0.4c0.1-0.2,0.2-0.6-0.1-1c-0.2-0.3-1.3-1.6-1.4-1.8    c0-0.1-0.1-0.1-0.2,0L41.9,167.6z"></path>
		<path class="st1" d="M54.4,177.4L54.4,177.4c0.8-0.1,4.1-0.4,4.8-0.5c0.7-0.1,1.2-0.2,1.3-0.4c0.1-0.1,0.1-0.3,0-0.4    c-0.1-0.1-0.1-0.2-0.1-0.2c0.1-0.1,0.2-0.1,0.3,0c0.3,0.2,0.9,0.8,1.2,1.1c0.4,0.3,1.1,0.8,1.4,1.1c0.1,0.1,0.2,0.2,0.1,0.3    c-0.1,0.1-0.2,0.1-0.3,0c-0.2-0.1-0.5-0.3-0.8-0.4c-0.5-0.2-1.1-0.2-2-0.2c-0.7,0.1-4,0.4-4.7,0.5c0,0.9,0.3,5.4,0.4,6.2    c0.1,0.9,0.2,1.9,0.7,2.7c0.2,0.4,0.5,0.7,0.6,0.8c0.1,0.1,0.1,0.2,0.1,0.2c-0.1,0.1-0.2,0.1-0.4-0.1l-1-0.9    c-0.4-0.3-0.6-0.5-0.8-0.7c-0.6-0.6-0.7-1.1-0.9-2c-0.1-0.9-0.2-5.6-0.2-6.2l0-0.3l-0.1,0l-0.9,1.1c-0.9,1.1-1.7,2.1-2.1,2.6    c-0.3,0.4-0.4,0.7-0.1,1c0.1,0.2,0.4,0.4,0.6,0.5c0.1,0.1,0.1,0.2,0.1,0.2c-0.1,0.1-0.2,0-0.3-0.1c-0.7-0.6-1.4-1.2-1.7-1.5    c-0.3-0.2-1.1-0.8-1.5-1.2c-0.2-0.1-0.2-0.2-0.1-0.3c0-0.1,0.1-0.1,0.3,0.1c0.2,0.1,0.3,0.2,0.5,0.3c0.3,0.2,0.6-0.1,0.9-0.4    c0.5-0.5,1.3-1.4,2.2-2.5l1.7-2.1c1.5-1.8,1.8-2.2,2.1-2.6c0.3-0.4,0.4-0.7,0-1.1c-0.1-0.1-0.3-0.3-0.4-0.4    c-0.1-0.1-0.2-0.2-0.1-0.3c0.1-0.1,0.2,0,0.4,0.1c0.6,0.5,1.4,1.2,1.7,1.4c0.3,0.2,1.1,0.8,1.5,1.2c0.2,0.1,0.2,0.2,0.2,0.3    c-0.1,0.1-0.2,0-0.3,0c-0.1-0.1-0.2-0.1-0.4-0.2c-0.4-0.2-0.6-0.1-1,0.3c-0.3,0.4-0.6,0.7-2.1,2.5L54.4,177.4z"></path>
		<path class="st1" d="M60.7,188.5c-0.6-1.9-0.1-3.6,0.7-5c0.5-0.9,1.8-2.3,3.7-2.8c1.5-0.3,3.1-0.1,5.1,1.1    c0.8,0.5,1.3,0.8,1.9,1.3c0.5,0.4,0.8,0.7,1.2,1c0.1,0.1,0.2,0.2,0.1,0.3c-0.1,0.1-0.2,0.2-0.5,0.7c-0.3,0.4-0.7,1.2-0.9,1.4    c-0.1,0.2-0.2,0.3-0.3,0.2c-0.1-0.1-0.1-0.2,0-0.4c0.2-0.4,0.3-1,0.2-1.5c-0.2-0.7-1-1.7-2.2-2.4c-1.2-0.7-2.1-0.8-3-0.6    c-1.5,0.3-2.5,1.5-3.3,2.8c-1.9,3.2-0.4,6.2,1.4,7.3c1.2,0.7,2,1,2.9,0.7c0.4-0.1,0.8-0.4,1-0.6c0.2-0.2,0.2-0.2,0.3-0.2    c0.1,0.1,0.1,0.2,0,0.3c-0.1,0.2-0.9,1.2-1.3,1.6c-0.2,0.2-0.3,0.2-0.6,0.2c-0.7-0.1-1.7-0.6-2.6-1.1    C62.6,191.6,61.3,190.3,60.7,188.5z"></path>
		<path class="st1" d="M74.8,193c-0.1,0-0.1,0-0.2,0.1l-1.6,1.8c-0.3,0.3-0.5,0.6-0.6,0.8c-0.1,0.3,0,0.5,0.4,0.7l0.2,0.1    c0.2,0.1,0.2,0.1,0.2,0.2c0,0.1-0.1,0.1-0.3,0c-0.5-0.2-1.1-0.5-1.5-0.6c-0.2-0.1-1-0.3-1.7-0.6c-0.2-0.1-0.3-0.1-0.2-0.3    c0-0.1,0.1-0.1,0.2,0c0.1,0.1,0.3,0.1,0.5,0.1c0.7,0.2,1.2-0.2,1.7-0.8l7.2-7.7c0.3-0.4,0.5-0.5,0.6-0.4c0.1,0.1,0.2,0.2,0.2,0.6    c0,0.9,0,7.8,0.1,10.3c0,1.5,0.4,1.9,0.7,2.1c0.2,0.1,0.4,0.2,0.6,0.3c0.1,0,0.2,0.1,0.1,0.2c0,0.1-0.2,0.1-0.7-0.1    c-0.5-0.2-1.6-0.6-2.7-1.1c-0.3-0.1-0.4-0.2-0.4-0.3c0-0.1,0.1-0.1,0.3-0.1c0.1,0,0.3-0.1,0.3-0.3l0-3.5c0-0.1,0-0.1-0.1-0.2    L74.8,193z M78,193.4c0.1,0,0.1,0,0.1-0.1l0.1-4.1c0-0.1,0-0.1,0-0.2c0,0-0.1,0-0.1,0.1l-2.7,3c0,0.1,0,0.1,0,0.1L78,193.4z"></path>
		<path class="st1" d="M90.7,194.8c0.4-2.3,0.4-2.8,0.5-3.3c0.1-0.5,0-0.8-0.5-1c-0.1-0.1-0.4-0.1-0.6-0.1c-0.2,0-0.3-0.1-0.2-0.2    c0-0.1,0.1-0.1,0.4-0.1c0.8,0.1,1.8,0.3,2.2,0.4c0.4,0.1,1.3,0.2,1.9,0.3c0.2,0,0.3,0.1,0.3,0.2c0,0.1-0.1,0.1-0.3,0.1    c-0.2,0-0.3,0-0.5,0c-0.4,0-0.6,0.3-0.7,0.8c-0.1,0.5-0.2,0.9-0.5,3.3l-0.3,2.2c-0.3,2.2,0,3.2,0.6,4c0.6,0.7,1.3,0.9,1.8,0.9    c0.7,0.1,1.5,0,2.3-0.5c1-0.7,1.2-2.1,1.5-3.7l0.3-1.9c0.4-2.3,0.4-2.8,0.5-3.3c0.1-0.5,0-0.8-0.5-1c-0.1-0.1-0.4-0.1-0.5-0.1    c-0.2,0-0.3-0.1-0.2-0.2s0.1-0.1,0.3-0.1c0.8,0.1,1.8,0.3,1.8,0.3c0.2,0,1.2,0.1,1.8,0.2c0.2,0,0.3,0.1,0.3,0.2    c0,0.1-0.1,0.1-0.3,0.1c-0.2,0-0.3,0-0.5,0c-0.4,0-0.6,0.3-0.7,0.8c-0.1,0.5-0.2,0.9-0.5,3.3l-0.3,1.7c-0.3,1.7-0.7,3.5-2.2,4.4    c-1.2,0.8-2.4,0.8-3.4,0.6c-0.8-0.1-2.3-0.4-3.3-1.6c-0.7-0.8-1.1-2.1-0.7-4.3L90.7,194.8z"></path>
		<path class="st1" d="M106.1,201.7c0.1,1.2,0.3,1.6,0.6,1.7c0.3,0.1,0.6,0.1,0.8,0.1c0.2,0,0.3,0,0.3,0.1c0,0.1-0.1,0.2-0.4,0.2    c-1,0-1.6,0-1.9,0c-0.1,0-0.9,0.1-1.7,0.1c-0.2,0-0.3,0-0.3-0.1c0-0.1,0.1-0.1,0.2-0.1c0.2,0,0.5,0,0.7-0.1    c0.4-0.1,0.5-0.6,0.4-1.9l-0.1-9.2c0-0.3,0-0.5,0.2-0.5c0.2,0,0.3,0.2,0.6,0.5c0.2,0.2,2.6,2.7,4.9,4.9c1.1,1,3.2,3.2,3.5,3.5    l0.1,0l-0.3-7c0-1-0.2-1.2-0.6-1.4c-0.2-0.1-0.6-0.1-0.8-0.1c-0.2,0-0.3,0-0.3-0.1c0-0.1,0.2-0.1,0.4-0.2c0.8,0,1.6,0,1.9,0    c0.2,0,0.8-0.1,1.5-0.1c0.2,0,0.4,0,0.4,0.1c0,0.1-0.1,0.1-0.3,0.1c-0.2,0-0.3,0-0.5,0.1c-0.4,0.1-0.6,0.5-0.5,1.3l0,9.9    c0,0.3-0.1,0.5-0.2,0.5c-0.2,0-0.4-0.2-0.5-0.3c-1-0.9-3-2.9-4.7-4.5c-1.7-1.6-3.5-3.6-3.8-3.9l0,0L106.1,201.7z"></path>
		<path class="st1" d="M120.4,195.6c-0.4-2.3-0.4-2.8-0.6-3.3c-0.1-0.5-0.3-0.8-0.7-0.8c-0.2,0-0.4,0-0.6,0c-0.2,0-0.3,0-0.3-0.1    c0-0.1,0.1-0.1,0.4-0.2c0.6-0.1,1.6-0.2,2-0.3c0.4-0.1,1.3-0.3,1.9-0.3c0.2,0,0.3,0,0.3,0.1c0,0.1-0.1,0.2-0.2,0.2    c-0.2,0-0.3,0.1-0.5,0.1c-0.4,0.1-0.5,0.4-0.4,1c0,0.5,0.1,0.9,0.5,3.3l0.4,2.7c0.2,1.5,0.4,2.7,0.6,3.4c0.1,0.4,0.3,0.7,0.7,0.7    c0.2,0,0.6,0,0.8-0.1c0.2,0,0.3,0,0.3,0.1c0,0.1-0.1,0.2-0.3,0.2c-1,0.2-2,0.3-2.4,0.3c-0.4,0.1-1.3,0.3-1.9,0.4    c-0.2,0-0.3,0-0.3-0.1c0-0.1,0-0.1,0.2-0.2c0.2,0,0.4-0.1,0.5-0.2c0.3-0.1,0.3-0.4,0.3-0.8c0-0.7-0.2-1.9-0.5-3.4L120.4,195.6z"></path>
		<path class="st1" d="M125.8,191.7c-0.6-0.7-0.9-0.8-1.5-0.8c-0.2,0-0.5,0.1-0.6,0.1c-0.1,0-0.2,0-0.2-0.1c0-0.1,0.1-0.2,0.4-0.3    c0.8-0.2,1.7-0.4,2.2-0.6c0.4-0.1,1.1-0.4,1.8-0.6c0.2-0.1,0.4-0.1,0.4,0c0,0.1-0.1,0.2-0.2,0.2c-0.2,0.1-0.5,0.1-0.6,0.3    c-0.1,0.1-0.1,0.2-0.1,0.4c0.1,0.2,0.3,0.6,0.7,1.1l4.5,6.1l0.1,0c0.2-1.8,0.7-7.2,0.8-8.3c0-0.2,0-0.5,0-0.6    c0-0.1-0.1-0.2-0.3-0.2c-0.2,0-0.4,0-0.6,0.1c-0.1,0-0.3,0.1-0.3,0c0-0.1,0.1-0.2,0.4-0.3c0.8-0.2,1.4-0.4,1.6-0.4    c0.3-0.1,0.9-0.3,1.4-0.4c0.2-0.1,0.3-0.1,0.4,0s-0.1,0.2-0.2,0.2c-0.2,0-0.5,0.1-0.7,0.4c-0.2,0.2-0.3,0.5-0.4,1.6    c-0.2,1.6-0.4,2.5-0.6,4.6c-0.3,2.5-0.6,4.3-0.7,5.1c-0.1,1-0.2,1.2-0.4,1.3c-0.2,0.1-0.3-0.1-0.8-0.8L125.8,191.7z"></path>
		<path class="st1" d="M139.2,190.5c-1-2.2-1.1-2.6-1.4-3c-0.2-0.5-0.5-0.7-1-0.5c-0.1,0-0.4,0.1-0.6,0.2c-0.2,0.1-0.3,0.1-0.3,0    c0-0.1,0-0.2,0.3-0.3c0.4-0.2,0.8-0.3,1.2-0.5c0.4-0.2,0.7-0.3,0.9-0.4c0.5-0.2,3.3-1.5,3.6-1.6c0.3-0.1,0.5-0.3,0.6-0.4    c0.1,0,0.1-0.1,0.2-0.2s0.1,0,0.1,0.1c0,0.1,0,0.3,0.3,1c0,0.1,0.3,0.8,0.3,1c0,0.1,0,0.2-0.1,0.2c-0.1,0-0.2,0-0.2-0.1    c0-0.1-0.2-0.3-0.3-0.5c-0.2-0.2-0.4-0.3-1.2-0.1c-0.3,0.1-1.8,0.7-2.1,0.8c-0.1,0-0.1,0.1,0,0.2l1.6,3.6c0,0.1,0.1,0.2,0.2,0.1    c0.3-0.1,2-0.9,2.3-1c0.3-0.2,0.5-0.3,0.6-0.5c0.1-0.2,0.1-0.3,0.1-0.3c0.1,0,0.1,0,0.2,0.1c0,0.1,0.1,0.3,0.3,1.1    c0.1,0.3,0.3,0.9,0.4,1c0.1,0.1,0.1,0.3,0,0.3c-0.1,0-0.2,0-0.2-0.1c-0.1-0.1-0.2-0.3-0.3-0.5c-0.2-0.3-0.5-0.4-1-0.2    c-0.3,0.1-1.7,0.7-2,0.9c-0.1,0-0.1,0.1,0,0.2l0.5,1.1c0.2,0.5,0.8,1.8,1,2.2c0.5,1,0.8,1.1,2.2,0.4c0.4-0.2,1-0.4,1.3-0.8    c0.3-0.3,0.3-0.7,0.2-1.3c0-0.2,0-0.2,0.1-0.3c0.1-0.1,0.2,0.1,0.2,0.2c0.1,0.3,0.5,1.3,0.5,1.7c0.1,0.4-0.1,0.5-0.6,0.7    c-1.1,0.5-1.9,0.8-2.5,1c-0.6,0.2-1.1,0.4-1.5,0.6c-0.2,0.1-0.5,0.2-0.8,0.4c-0.3,0.1-0.7,0.3-1,0.5c-0.2,0.1-0.3,0.1-0.3,0    c0-0.1,0-0.1,0.2-0.2c0.2-0.1,0.4-0.2,0.5-0.3c0.3-0.2,0.2-0.5,0.1-1c-0.2-0.6-0.7-1.8-1.3-3.1L139.2,190.5z"></path>
		<path class="st1" d="M148.7,186c-1.2-2-1.5-2.4-1.8-2.8c-0.3-0.4-0.5-0.6-1-0.4c-0.1,0-0.4,0.2-0.5,0.3c-0.1,0.1-0.2,0.1-0.3,0    c-0.1-0.1,0-0.2,0.2-0.3c0.7-0.4,1.6-0.9,1.8-1.1c0.5-0.3,1.4-0.9,1.8-1.2c0.8-0.5,1.8-1,2.8-0.9c0.5,0,1.5,0.4,2,1.3    c0.6,1,0.8,2.1,0.1,4.1c2.1,0.8,3.7,1.4,5,1.7c1.2,0.3,1.8,0.1,2,0c0.2-0.1,0.3-0.1,0.4-0.2c0.1-0.1,0.2-0.1,0.2,0    c0.1,0.1,0,0.2-0.2,0.3l-1.3,0.8c-0.7,0.5-1.1,0.6-1.6,0.6c-0.8,0-1.6-0.3-3-0.8c-1-0.4-2.2-0.9-2.4-1c-0.1,0-0.2,0-0.3,0.1    l-1.2,0.7c-0.1,0-0.1,0.1,0,0.2l0.1,0.2c0.8,1.2,1.4,2.3,1.8,2.8c0.3,0.4,0.5,0.6,1,0.4c0.2-0.1,0.5-0.3,0.7-0.4    c0.1-0.1,0.2-0.1,0.2,0c0.1,0.1,0,0.2-0.2,0.3c-0.8,0.5-1.8,1-2,1.2c-0.3,0.2-1.1,0.7-1.6,1c-0.2,0.1-0.3,0.1-0.3,0    c0-0.1,0-0.1,0.1-0.2c0.2-0.1,0.3-0.2,0.4-0.3c0.2-0.2,0.1-0.6-0.1-1c-0.3-0.6-0.9-1.6-1.7-2.9L148.7,186z M150.9,186    c0.1,0.1,0.2,0.2,0.3,0.2c0.3-0.1,0.8-0.3,1.1-0.5c0.5-0.3,0.7-0.5,0.8-0.8c0.2-0.5,0.2-1.4-0.4-2.5c-1.2-1.9-2.7-1.7-3.5-1.2    c-0.3,0.2-0.6,0.4-0.7,0.5c-0.1,0.1-0.1,0.2,0,0.3L150.9,186z"></path>
		<path class="st1" d="M162.5,185.2c-0.3,0.1-0.3,0-0.6-0.2c-0.5-0.7-1.1-1.4-1.2-1.6c-0.1-0.2-0.2-0.4-0.1-0.4    c0.1-0.1,0.2,0,0.3,0.1c0.1,0.2,0.4,0.4,0.6,0.5c1,0.7,2,0.4,2.7-0.2c1.1-0.9,1-2.1,0.5-2.7c-0.5-0.6-1.1-1-2.8-1l-0.9,0    c-2.2,0-3.3-0.4-4.1-1.4c-1.1-1.3-0.8-3.2,0.9-4.6c0.8-0.6,1.4-0.9,1.8-1.1c0.1-0.1,0.2-0.1,0.3,0c0.1,0.2,0.4,0.5,1.1,1.5    c0.2,0.3,0.3,0.4,0.2,0.5c-0.1,0.1-0.2,0-0.3-0.1c-0.1-0.1-0.5-0.4-1-0.5c-0.4-0.1-1-0.2-1.8,0.5c-0.9,0.7-1,1.7-0.4,2.4    c0.5,0.6,1.1,0.8,2.7,0.7l0.5,0c2.4-0.1,3.6,0.3,4.5,1.5c0.6,0.7,1,1.8,0.6,3c-0.3,0.9-0.9,1.5-1.5,2.1    C163.9,184.7,163.3,185,162.5,185.2z"></path>
		<path class="st1" d="M166,172.8c-1.7-1.7-2-2-2.4-2.3c-0.4-0.4-0.7-0.4-1-0.2c-0.2,0.1-0.3,0.2-0.4,0.4c-0.1,0.1-0.2,0.2-0.3,0.1    c-0.1-0.1,0-0.2,0.2-0.4c0.4-0.4,1.1-1.1,1.5-1.4c0.3-0.3,0.9-1,1.3-1.4c0.1-0.1,0.3-0.2,0.3-0.1c0.1,0.1,0,0.2-0.1,0.3    c-0.1,0.1-0.2,0.2-0.3,0.4c-0.2,0.4-0.1,0.6,0.2,1c0.3,0.4,0.6,0.7,2.3,2.4l1.9,1.9c1.1,1.1,1.9,1.9,2.5,2.4    c0.3,0.3,0.6,0.4,1,0.1c0.2-0.1,0.4-0.4,0.6-0.5c0.1-0.1,0.2-0.1,0.3-0.1c0.1,0.1,0,0.2-0.1,0.3c-0.7,0.7-1.5,1.4-1.7,1.7    c-0.3,0.3-0.9,1-1.4,1.4c-0.1,0.1-0.3,0.2-0.3,0.1c-0.1-0.1,0-0.1,0.1-0.3c0.2-0.2,0.3-0.3,0.4-0.4c0.2-0.3,0.1-0.5-0.2-0.9    c-0.4-0.5-1.3-1.4-2.4-2.5L166,172.8z"></path>
		<path class="st1" d="M169.6,163.4l-1.4,1.9c-0.5,0.7-0.7,1.1-0.6,1.5c0.1,0.3,0.2,0.4,0.3,0.5c0.1,0.1,0.1,0.2,0,0.3    c-0.1,0.1-0.1,0.1-0.3,0c-0.2-0.2-1.1-1.3-1.2-1.4c-0.1-0.2-0.2-0.3-0.1-0.3c0.1-0.1,0.3-0.1,0.6-0.4c0.3-0.3,0.7-0.8,1-1.2    l3.8-4.9c0.3-0.4,0.5-0.7,0.6-0.9c0.1-0.2,0.2-0.3,0.2-0.4c0.1-0.1,0.2,0,0.3,0.1c0.3,0.2,1.1,0.9,1.4,1.2    c0.1,0.1,0.2,0.2,0.1,0.3c-0.1,0.1-0.2,0.1-0.4-0.1l-0.1-0.1c-0.3-0.2-0.9-0.2-1.8,0.9l-1.3,1.5l5,4c1.1,0.9,2.1,1.6,2.7,2    c0.4,0.2,0.7,0.4,1,0c0.2-0.2,0.4-0.4,0.5-0.6c0.1-0.1,0.2-0.2,0.3-0.1c0.1,0.1,0,0.2-0.1,0.3c-0.6,0.8-1.3,1.6-1.6,1.9    c-0.2,0.3-0.8,1.1-1.2,1.6c-0.1,0.2-0.2,0.2-0.3,0.1c-0.1,0-0.1-0.1,0.1-0.3c0.1-0.2,0.2-0.4,0.3-0.5c0.1-0.3-0.1-0.6-0.4-0.9    c-0.5-0.5-1.4-1.2-2.6-2.1L169.6,163.4z"></path>
		<path class="st1" d="M181.8,157.9c-0.7-0.4-1.1-0.5-1.6-0.5c-0.3,0-4.3,0.1-5.3,0.1c-0.7,0-1.2,0.2-1.5,0.4    c-0.2,0.1-0.4,0.3-0.5,0.5c-0.1,0.1-0.1,0.2-0.2,0.1c-0.1,0-0.1-0.2,0-0.3c0.1-0.2,0.8-1.2,1-1.7c0.2-0.3,0.4-0.9,0.8-1.5    c0.1-0.1,0.2-0.2,0.2-0.1c0.1,0,0,0.1,0,0.4c0,0.1,0,0.3,0.1,0.3c0.1,0.1,0.3,0.1,0.6,0.1c0.5,0,4.9,0,5.4,0.1    c-0.2-0.3-2.2-3.7-2.5-4.2c-0.2-0.3-0.4-0.5-0.6-0.6c-0.1-0.1-0.3-0.1-0.5,0.1c-0.1,0.1-0.2,0.2-0.3,0.2c-0.1-0.1-0.1-0.1,0-0.3    c0.3-0.4,0.6-0.9,0.8-1.2c0.2-0.3,0.6-1.2,0.8-1.5c0.1-0.2,0.2-0.2,0.2-0.2c0.1,0.1,0.1,0.2,0,0.3c-0.1,0.1-0.2,0.4-0.2,0.7    c0,0.4,0,0.6,0.2,1.1c0.3,0.8,2.4,4.5,2.8,5.1c0.4,0.5,0.8,0.7,1.2,1l1.1,0.6c0.2,0.1,0.8,0.5,1.4,0.7c0.4,0.2,0.8,0.3,1.1-0.1    c0.1-0.2,0.3-0.5,0.4-0.6c0.1-0.1,0.2-0.2,0.2-0.2c0.1,0.1,0.1,0.2,0,0.4c-0.5,0.9-1,1.7-1.2,2c-0.2,0.3-0.7,1.2-0.9,1.7    c-0.1,0.2-0.2,0.3-0.3,0.2c-0.1,0-0.1-0.1,0-0.3c0.1-0.2,0.2-0.4,0.2-0.5c0.1-0.3-0.1-0.6-0.5-0.8c-0.5-0.4-1.1-0.7-1.3-0.8    L181.8,157.9z"></path>
	</g>
	<g>
		<path class="st1" d="M27.4,76.3c0,0.1,0,0.1,0.1,0.2l1.7,1.7c0.3,0.3,0.6,0.5,0.8,0.6c0.3,0.1,0.5,0.1,0.7-0.4l0.1-0.2    c0.1-0.2,0.1-0.2,0.2-0.2c0.1,0,0.1,0.1,0,0.3c-0.2,0.5-0.5,1.1-0.7,1.5c-0.1,0.2-0.4,1-0.7,1.7c-0.1,0.2-0.1,0.3-0.3,0.2    c-0.1,0-0.1-0.1,0-0.2c0.1-0.1,0.1-0.3,0.2-0.5c0.2-0.7-0.2-1.2-0.8-1.8l-7.5-7.4c-0.3-0.3-0.5-0.5-0.4-0.6    c0.1-0.1,0.2-0.2,0.6-0.2c0.9,0,7.8,0.2,10.3,0.2c1.5,0,1.9-0.3,2.1-0.6c0.1-0.2,0.2-0.4,0.3-0.6c0-0.1,0.1-0.2,0.2-0.1    c0.1,0,0.1,0.2-0.1,0.7c-0.2,0.5-0.7,1.6-1.2,2.7c-0.1,0.3-0.2,0.4-0.3,0.4c-0.1,0-0.1-0.1,0-0.3c0-0.1-0.1-0.3-0.3-0.3L28.9,73    c-0.1,0-0.1,0-0.2,0.1L27.4,76.3z M28,73.1c0-0.1,0-0.1-0.1-0.1l-4.1-0.2c-0.1,0-0.1,0-0.2,0c0,0,0,0.1,0.1,0.1l3,2.8    c0.1,0,0.1,0,0.1,0L28,73.1z"></path>
		<path class="st1" d="M32.9,64.1c1.7,1,2.6,1.6,3.1,1.4c0.3-0.1,0.6-0.4,1.3-1.5c0.4-0.7,0.7-1.2,0.6-1.8c-0.1-0.3-0.4-0.6-0.6-0.8    c-0.1-0.1-0.2-0.2-0.1-0.3c0.1-0.1,0.1-0.1,0.3,0c0.1,0.1,1.1,0.8,1.4,1.1c0.2,0.3,0.3,0.4-0.1,1.1c-0.6,1-1,1.7-1.4,2.2    c-0.4,0.6-0.7,1.1-1,1.6c-0.1,0.1-0.3,0.4-0.4,0.8c-0.2,0.3-0.4,0.7-0.5,0.9c-0.1,0.2-0.2,0.2-0.3,0.2c-0.1,0-0.1-0.1,0-0.3    c0.1-0.2,0.2-0.4,0.2-0.5c0.1-0.3-0.2-0.5-0.5-0.8c-0.5-0.4-1.6-1-2.8-1.8l-2.4-1.4c-2-1.2-2.4-1.4-2.9-1.7    c-0.5-0.2-0.8-0.3-1.1,0.1c-0.1,0.1-0.2,0.2-0.3,0.4c-0.1,0.1-0.2,0.2-0.3,0.2c-0.1-0.1-0.1-0.2,0.1-0.4c0.4-0.6,0.9-1.5,1.1-1.8    c0.2-0.3,0.7-1.3,1-1.9c0.1-0.2,0.2-0.3,0.3-0.2c0.1,0.1,0.1,0.2,0,0.3c-0.1,0.1-0.2,0.4-0.3,0.5c-0.1,0.4,0,0.6,0.5,0.9    c0.4,0.3,0.8,0.5,2.8,1.7L32.9,64.1z"></path>
		<path class="st1" d="M34.8,55.9c-1.9-1.5-2.2-1.8-2.6-2c-0.4-0.3-0.7-0.4-1.1,0c-0.1,0.1-0.3,0.3-0.4,0.4    c-0.1,0.1-0.2,0.2-0.3,0.1c-0.1-0.1,0-0.2,0.1-0.4c0.5-0.6,1.2-1.4,1.5-1.8c0.2-0.3,0.8-1.1,1.2-1.5c0.1-0.2,0.2-0.2,0.3-0.2    c0.1,0.1,0.1,0.2,0,0.3c-0.1,0.1-0.2,0.2-0.2,0.4c-0.2,0.4-0.1,0.6,0.3,1c0.4,0.3,0.7,0.6,2.6,2.1l1.7,1.4    c1.8,1.4,2.8,1.6,3.8,1.4c0.9-0.2,1.4-0.7,1.7-1.1c0.4-0.5,0.8-1.3,0.7-2.2c-0.1-1.2-1.2-2.1-2.5-3.1l-1.5-1.2    c-1.9-1.5-2.2-1.7-2.6-2c-0.4-0.3-0.7-0.4-1.1,0c-0.1,0.1-0.3,0.3-0.4,0.4c-0.1,0.1-0.2,0.2-0.3,0.1c-0.1-0.1,0-0.2,0.1-0.3    c0.5-0.6,1.1-1.4,1.2-1.4c0.1-0.1,0.7-0.9,1.1-1.4c0.1-0.2,0.2-0.2,0.3-0.2c0.1,0.1,0.1,0.2-0.1,0.3c-0.1,0.1-0.2,0.2-0.2,0.4    c-0.2,0.4-0.1,0.6,0.3,1c0.4,0.3,0.7,0.6,2.6,2.1l1.3,1c1.4,1.1,2.7,2.4,2.7,4.1c0.1,1.5-0.5,2.4-1.1,3.2c-0.5,0.6-1.5,1.8-3,2    c-1.1,0.2-2.3-0.1-4.1-1.5L34.8,55.9z"></path>
		<path class="st1" d="M42.3,40.3c-0.1-0.2-0.2-0.4-0.1-0.5s0.2-0.1,0.6,0.1l9,3.8l-2.7-9.5c-0.1-0.3-0.1-0.4,0-0.5    c0.1-0.1,0.3,0,0.5,0.2l7.4,6.3c0.8,0.6,1.2,0.9,1.6,0.7c0.4-0.2,0.7-0.4,0.8-0.5c0.1-0.1,0.2-0.2,0.3-0.1c0.1,0.1,0,0.3-0.2,0.4    c-0.3,0.3-1.9,1.6-2.4,2c-0.3,0.2-0.4,0.2-0.5,0.2c-0.1-0.1,0-0.1,0-0.2c0.1-0.1,0-0.3-0.4-0.6l-5.2-4.6l0,0l2.1,7.6    c0.2,0.8,0.2,0.9,0.1,1c-0.1,0.1-0.4,0-0.9-0.2c-0.8-0.3-3.3-1.3-3.7-1.5c-0.3-0.2-2.3-1-3.5-1.5l0,0l3.5,5.2    c0.2,0.2,0.3,0.4,0.4,0.6c0.2,0.2,0.4,0.2,0.7,0.1c0.3-0.1,0.4-0.3,0.5-0.4c0.1-0.1,0.2-0.1,0.2-0.1c0.1,0.1,0,0.2-0.2,0.4    c-0.5,0.4-1.1,0.9-1.3,1c-0.2,0.2-0.8,0.7-1.1,1.1C48,51,47.9,51,47.8,50.9c-0.1-0.1,0-0.1,0.1-0.2c0.1-0.1,0.2-0.2,0.3-0.3    c0.3-0.4,0-0.9-0.3-1.3L42.3,40.3z"></path>
		<path class="st1" d="M62.3,36.8c0.6,1,1,1.3,1.3,1.2c0.3-0.1,0.5-0.2,0.8-0.3c0.1-0.1,0.2-0.1,0.3,0c0.1,0.1,0,0.2-0.2,0.3    c-0.9,0.5-1.4,0.8-1.7,0.9c-0.1,0.1-0.7,0.5-1.4,0.9c-0.2,0.1-0.3,0.2-0.4,0c0-0.1,0-0.2,0.2-0.2c0.2-0.1,0.4-0.3,0.6-0.4    c0.3-0.3,0.1-0.7-0.6-1.9l-4.5-8.1c-0.2-0.3-0.2-0.5-0.1-0.6c0.1-0.1,0.4,0,0.7,0.1c0.3,0.1,3.6,1.1,6.7,1.9    c1.4,0.4,4.4,1.3,4.8,1.4l0.1,0l-3.6-6c-0.5-0.8-0.8-1-1.2-0.9c-0.2,0-0.6,0.2-0.8,0.3c-0.2,0.1-0.2,0.1-0.3,0    c-0.1-0.1,0.1-0.2,0.3-0.3c0.7-0.4,1.4-0.7,1.7-0.9c0.1-0.1,0.6-0.4,1.3-0.8c0.2-0.1,0.3-0.2,0.4-0.1c0,0.1,0,0.2-0.2,0.3    c-0.1,0.1-0.2,0.1-0.4,0.3c-0.3,0.3-0.3,0.7,0.2,1.4l4.8,8.6c0.2,0.3,0.2,0.4,0.1,0.5c-0.1,0.1-0.4,0-0.6,0    c-1.3-0.3-4.1-1.1-6.3-1.7c-2.3-0.6-4.8-1.4-5.2-1.5l0,0L62.3,36.8z"></path>
		<path class="st1" d="M73.4,25.2c-0.9-2.2-1.1-2.6-1.3-3.1c-0.2-0.5-0.5-0.7-0.8-0.6c-0.2,0-0.4,0.1-0.5,0.2    c-0.1,0.1-0.2,0.1-0.3-0.1c0-0.1,0.1-0.2,0.3-0.3c0.6-0.2,1.5-0.6,1.9-0.7c0.4-0.1,1.2-0.5,1.7-0.8c0.2-0.1,0.3-0.1,0.4,0    c0,0.1,0,0.2-0.2,0.2c-0.1,0.1-0.3,0.1-0.4,0.2c-0.4,0.2-0.4,0.5-0.2,1c0.2,0.5,0.3,0.9,1.2,3.1l1,2.5c0.6,1.4,1,2.5,1.3,3.1    c0.2,0.4,0.4,0.6,0.9,0.5c0.2-0.1,0.5-0.2,0.8-0.2c0.2-0.1,0.3-0.1,0.3,0c0,0.1-0.1,0.2-0.2,0.3c-1,0.4-1.9,0.7-2.3,0.9    c-0.3,0.1-1.2,0.6-1.8,0.8c-0.2,0.1-0.3,0.1-0.3,0c0-0.1,0-0.1,0.2-0.2c0.2-0.1,0.4-0.2,0.5-0.3c0.3-0.2,0.3-0.5,0.1-0.9    c-0.2-0.6-0.6-1.8-1.2-3.2L73.4,25.2z"></path>
		<path class="st1" d="M88.3,23.7c-0.1,0-0.1,0.1-0.1,0.2l-0.4,2.4c-0.1,0.4-0.1,0.8,0,1c0.1,0.3,0.2,0.4,0.7,0.3l0.2,0    c0.2,0,0.2,0,0.3,0.1c0,0.1-0.1,0.2-0.2,0.2c-0.5,0.1-1.2,0.2-1.6,0.3c-0.2,0-1,0.3-1.8,0.4c-0.2,0-0.3,0-0.3-0.1    c0-0.1,0-0.1,0.2-0.2c0.1,0,0.3-0.1,0.5-0.1c0.7-0.2,0.9-0.8,1-1.6L88.5,16c0.1-0.5,0.1-0.7,0.3-0.7c0.1,0,0.3,0.1,0.5,0.4    c0.5,0.8,4.3,6.5,5.7,8.6c0.9,1.3,1.4,1.4,1.7,1.4c0.2,0,0.5,0,0.7-0.1c0.1,0,0.2,0,0.2,0.1c0,0.1-0.1,0.2-0.7,0.3    c-0.6,0.1-1.7,0.3-2.9,0.6c-0.3,0-0.5,0.1-0.5,0c0-0.1,0-0.1,0.2-0.2c0.1-0.1,0.2-0.2,0.1-0.4l-1.9-3c0-0.1-0.1-0.1-0.2-0.1    L88.3,23.7z M91.3,22.3c0.1,0,0.1-0.1,0.1-0.1l-2.2-3.5c0-0.1-0.1-0.1-0.1-0.1S89,18.6,89,18.7l-0.6,4.1c0,0.1,0,0.1,0.1,0.1    L91.3,22.3z"></path>
		<path class="st1" d="M98.8,25.8c-0.3-0.1-0.3-0.2-0.3-0.5c-0.1-0.9-0.1-1.8-0.1-2c0-0.2,0-0.4,0.2-0.4c0.1,0,0.2,0.1,0.2,0.3    c0,0.2,0.1,0.5,0.2,0.8c0.4,1.1,1.4,1.5,2.3,1.4c1.4-0.1,2-1.1,1.9-1.9c-0.1-0.8-0.3-1.5-1.7-2.4l-0.8-0.5    c-1.8-1.2-2.5-2.2-2.6-3.5c-0.1-1.7,1.2-3,3.4-3.2c1-0.1,1.7,0,2.1,0.1c0.1,0,0.2,0.1,0.2,0.2c0,0.2,0,0.7,0.1,1.9    c0,0.3,0,0.5-0.1,0.5c-0.1,0-0.2-0.1-0.2-0.3c0-0.1-0.1-0.6-0.5-1c-0.3-0.3-0.7-0.7-1.8-0.6c-1.2,0.1-1.8,0.8-1.7,1.7    c0.1,0.7,0.5,1.2,1.8,2.1l0.5,0.3c2,1.3,2.7,2.3,2.9,3.8c0.1,0.9-0.2,2-1.3,2.8c-0.7,0.6-1.6,0.8-2.4,0.8    C100.2,26.1,99.5,26,98.8,25.8z"></path>
		<path class="st1" d="M108.6,25.3c-0.2-0.1-0.3-0.2-0.3-0.5c0-0.9,0.1-1.8,0.2-2c0-0.2,0.1-0.4,0.2-0.4c0.1,0,0.2,0.1,0.1,0.3    c0,0.2,0,0.5,0.1,0.8c0.3,1.2,1.2,1.6,2.2,1.7c1.4,0.1,2.1-0.9,2.2-1.7c0-0.8-0.2-1.5-1.4-2.6l-0.7-0.6c-1.7-1.4-2.2-2.5-2.2-3.8    c0.1-1.7,1.5-2.9,3.7-2.8c1,0,1.7,0.2,2.1,0.3c0.1,0,0.2,0.1,0.2,0.2c0,0.2-0.1,0.7-0.1,1.9c0,0.3-0.1,0.5-0.2,0.5    c-0.1,0-0.2-0.1-0.1-0.3c0-0.1-0.1-0.6-0.4-1c-0.2-0.3-0.7-0.8-1.7-0.8c-1.2,0-1.9,0.6-1.9,1.5c0,0.7,0.3,1.3,1.6,2.3l0.4,0.3    c1.8,1.5,2.5,2.6,2.4,4.1c0,0.9-0.4,2-1.6,2.7c-0.8,0.5-1.7,0.6-2.5,0.5C109.9,25.7,109.2,25.6,108.6,25.3z"></path>
		<path class="st1" d="M118.4,19.9c0.5-2.6,2.9-5.7,7.5-4.8c3.8,0.7,5.8,3.4,5.1,6.9c-0.7,3.5-3.6,5.8-7.5,5.1    C119.1,26.3,117.9,22.7,118.4,19.9z M128.8,22.2c0.6-3.4-0.9-5.9-3.4-6.4c-1.8-0.3-4,0.3-4.7,4.1c-0.6,3.2,0.7,6.1,3.6,6.6    C125.3,26.7,127.9,26.6,128.8,22.2z"></path>
		<path class="st1" d="M134.3,28.1c-1-1.8-0.7-3.6-0.2-5c0.4-1,1.3-2.6,3.2-3.4c1.4-0.6,3-0.6,5.2,0.2c0.9,0.3,1.4,0.6,2.1,0.9    c0.5,0.3,0.9,0.6,1.4,0.8c0.2,0.1,0.2,0.2,0.2,0.3c0,0.1-0.2,0.3-0.4,0.8c-0.2,0.5-0.5,1.3-0.6,1.6c-0.1,0.2-0.2,0.3-0.3,0.3    c-0.1,0-0.1-0.2,0-0.4c0.2-0.5,0.2-1-0.1-1.6c-0.3-0.7-1.3-1.5-2.6-2c-1.3-0.5-2.2-0.5-3.1-0.1c-1.4,0.6-2.2,1.9-2.8,3.3    c-1.3,3.5,0.7,6.2,2.7,6.9c1.3,0.5,2.1,0.6,3,0.2c0.4-0.2,0.7-0.5,0.9-0.8c0.1-0.2,0.2-0.3,0.3-0.2c0.1,0,0.1,0.2,0.1,0.3    c-0.1,0.2-0.7,1.4-1,1.8c-0.2,0.2-0.3,0.3-0.5,0.3c-0.7,0-1.8-0.3-2.8-0.6C136.7,30.8,135.2,29.7,134.3,28.1z"></path>
		<path class="st1" d="M149,28c1.1-2.1,1.3-2.5,1.5-2.9c0.2-0.5,0.2-0.8-0.1-1c-0.1-0.1-0.3-0.2-0.5-0.3c-0.1-0.1-0.2-0.1-0.1-0.3    c0-0.1,0.2-0.1,0.4,0.1c0.5,0.3,1.4,0.8,1.8,1c0.3,0.2,1.2,0.6,1.7,0.8c0.2,0.1,0.3,0.2,0.2,0.3c-0.1,0.1-0.2,0.1-0.3,0    c-0.1-0.1-0.3-0.1-0.4-0.2c-0.4-0.1-0.6,0.1-0.9,0.5c-0.3,0.4-0.5,0.8-1.6,2.9l-1.3,2.4c-0.7,1.3-1.3,2.4-1.5,3.1    c-0.2,0.4-0.2,0.7,0.2,1c0.2,0.1,0.5,0.3,0.7,0.4c0.2,0.1,0.2,0.2,0.2,0.2c-0.1,0.1-0.2,0.1-0.3,0c-0.9-0.5-1.8-1-2.1-1.2    c-0.3-0.2-1.2-0.6-1.8-0.9c-0.2-0.1-0.3-0.2-0.2-0.3c0-0.1,0.1-0.1,0.3,0c0.2,0.1,0.4,0.2,0.5,0.2c0.3,0.1,0.5-0.1,0.8-0.5    c0.4-0.5,0.9-1.6,1.6-3L149,28z"></path>
		<path class="st1" d="M155.1,35.2c-0.1,0-0.1,0-0.2,0l-2,1.4c-0.3,0.2-0.6,0.5-0.7,0.7c-0.2,0.2-0.2,0.5,0.2,0.8l0.2,0.1    c0.2,0.1,0.2,0.2,0.1,0.2c-0.1,0.1-0.2,0.1-0.3,0c-0.4-0.3-0.9-0.7-1.3-1c-0.1-0.1-0.9-0.5-1.5-1c-0.2-0.1-0.2-0.2-0.2-0.3    c0.1-0.1,0.1-0.1,0.2,0c0.1,0.1,0.3,0.2,0.4,0.2c0.6,0.3,1.2,0.1,1.9-0.4l8.8-5.9c0.4-0.3,0.6-0.4,0.7-0.3c0.1,0.1,0.1,0.2,0,0.6    c-0.2,0.9-1.7,7.6-2.2,10.1c-0.3,1.5,0,1.9,0.2,2.2c0.2,0.2,0.4,0.3,0.5,0.4c0.1,0.1,0.2,0.1,0.1,0.2c-0.1,0.1-0.2,0.1-0.7-0.3    c-0.5-0.3-1.4-1-2.4-1.7c-0.2-0.2-0.4-0.3-0.3-0.4c0.1-0.1,0.1-0.1,0.3,0c0.1,0,0.3,0,0.3-0.2l0.8-3.4c0-0.1,0-0.1-0.1-0.2    L155.1,35.2z M158.2,36.3c0.1,0,0.1,0,0.1,0l1-4c0-0.1,0.1-0.1,0-0.2c0,0-0.1,0-0.2,0.1l-3.3,2.4c0,0-0.1,0.1,0,0.1L158.2,36.3z"></path>
		<path class="st1" d="M169.6,37.5l-1.8-1.5c-0.7-0.6-1-0.8-1.4-0.7c-0.3,0.1-0.5,0.2-0.6,0.2c-0.1,0.1-0.2,0.1-0.3,0    c-0.1-0.1-0.1-0.2,0.1-0.3c0.2-0.2,1.3-1.1,1.4-1.1c0.2-0.1,0.3-0.2,0.3-0.1c0.1,0.1,0.1,0.3,0.4,0.6c0.3,0.3,0.7,0.8,1.1,1.1    l4.6,4.1c0.4,0.3,0.7,0.5,0.9,0.7c0.2,0.1,0.3,0.2,0.4,0.2c0.1,0.1,0,0.2-0.1,0.3c-0.2,0.2-1,1-1.2,1.3c-0.1,0.1-0.2,0.2-0.3,0.1    c-0.1-0.1-0.1-0.2,0.1-0.3l0.1-0.1c0.2-0.3,0.2-0.9-0.8-1.9l-1.4-1.3l-4.2,4.8c-1,1.1-1.8,2-2.2,2.5c-0.3,0.4-0.4,0.7-0.1,1    c0.1,0.2,0.4,0.4,0.6,0.6c0.1,0.1,0.2,0.2,0.1,0.3c-0.1,0.1-0.2,0-0.3-0.1c-0.8-0.7-1.5-1.4-1.8-1.7c-0.3-0.2-1-0.9-1.5-1.3    c-0.2-0.1-0.2-0.2-0.1-0.3c0.1-0.1,0.1-0.1,0.3,0.1c0.2,0.2,0.3,0.3,0.5,0.3c0.3,0.2,0.6,0,0.9-0.3c0.5-0.4,1.3-1.4,2.3-2.4    L169.6,37.5z"></path>
		<path class="st1" d="M174.7,47.5c1.8-1.6,2.1-1.9,2.4-2.2c0.4-0.4,0.5-0.7,0.3-1c-0.1-0.2-0.2-0.3-0.3-0.5    c-0.1-0.1-0.1-0.2-0.1-0.3c0.1-0.1,0.2,0,0.3,0.2c0.4,0.4,1,1.2,1.3,1.5c0.3,0.3,0.9,0.9,1.3,1.4c0.1,0.2,0.2,0.3,0.1,0.3    c-0.1,0.1-0.2,0-0.3-0.1c-0.1-0.1-0.2-0.2-0.3-0.3c-0.3-0.3-0.6-0.2-1,0.2c-0.4,0.3-0.7,0.6-2.5,2.2l-2,1.8c-1.1,1-2,1.8-2.5,2.3    c-0.3,0.3-0.4,0.6-0.2,1c0.1,0.2,0.3,0.5,0.5,0.6c0.1,0.1,0.1,0.2,0.1,0.3c-0.1,0.1-0.2,0-0.3-0.1c-0.7-0.8-1.3-1.5-1.6-1.8    c-0.2-0.3-0.9-1-1.3-1.4c-0.1-0.2-0.2-0.3-0.1-0.3c0.1-0.1,0.1,0,0.3,0.1c0.2,0.2,0.3,0.3,0.4,0.4c0.3,0.2,0.5,0.1,0.9-0.2    c0.5-0.4,1.5-1.2,2.6-2.2L174.7,47.5z"></path>
		<path class="st1" d="M178.1,53.3c2.2-1.5,6.1-2,8.7,1.9c2.2,3.2,1.7,6.5-1.3,8.5c-3,2-6.7,1.5-8.9-1.8    C174,58.3,175.8,54.9,178.1,53.3z M183.7,62.3c2.9-2,3.6-4.8,2.1-7c-1-1.5-3-2.6-6.2-0.4c-2.7,1.8-3.8,4.7-2.1,7.2    C178.1,63,180,64.8,183.7,62.3z"></path>
		<path class="st1" d="M184.3,70.5c-1.1,0.5-1.4,0.9-1.4,1.2c0,0.3,0.1,0.6,0.2,0.8c0.1,0.2,0.1,0.3,0,0.3c-0.1,0.1-0.2-0.1-0.3-0.3    c-0.4-0.9-0.6-1.5-0.7-1.8c-0.1-0.1-0.4-0.8-0.7-1.5c-0.1-0.2-0.1-0.3,0-0.4c0.1,0,0.2,0,0.2,0.2c0.1,0.2,0.2,0.4,0.4,0.6    c0.3,0.3,0.7,0.2,2-0.3l8.5-3.6c0.3-0.1,0.5-0.2,0.6,0c0.1,0.2-0.1,0.4-0.2,0.7c-0.1,0.3-1.5,3.4-2.6,6.4    c-0.5,1.4-1.8,4.2-1.9,4.6l0,0.1l6.3-3c0.9-0.4,1.1-0.6,1.1-1.1c0-0.3-0.2-0.6-0.2-0.8c-0.1-0.2-0.1-0.2,0-0.3    c0.1-0.1,0.2,0.1,0.3,0.3c0.3,0.7,0.6,1.4,0.7,1.7c0.1,0.2,0.4,0.7,0.7,1.4c0.1,0.2,0.1,0.3,0,0.4c-0.1,0-0.2,0-0.2-0.2    c-0.1-0.1-0.1-0.3-0.2-0.4c-0.3-0.4-0.6-0.3-1.4,0l-9.1,3.8c-0.3,0.1-0.5,0.1-0.5,0c-0.1-0.2,0-0.4,0.1-0.6    c0.5-1.3,1.5-3.9,2.3-6.1c0.9-2.2,1.9-4.6,2.1-5l0,0L184.3,70.5z"></path>
	</g>
	<g>
		<path class="st1" d="M108.2,210.5c-56.4,0-102.4-45.9-102.4-102.4C5.8,51.8,51.8,5.8,108.2,5.8s102.4,45.9,102.4,102.4    C210.5,164.6,164.6,210.5,108.2,210.5z M108.2,8.7c-54.9,0-99.5,44.6-99.5,99.5c0,54.9,44.6,99.5,99.5,99.5s99.5-44.6,99.5-99.5    C207.7,53.3,163.1,8.7,108.2,8.7z"></path>
	</g>
	<g>
		<circle class="st1" cx="21.2" cy="112.2" r="6.3"></circle>
	</g>
	<g>
		<circle class="st1" cx="194.8" cy="111.3" r="6.3"></circle>
	</g>
	<g>
		<path class="st2" d="M70.5,117.2h-3.3V111h-8.3v6.2h-3.3v-8c0-2,0.4-3.7,1.3-5.1c0.8-1.4,2-2.6,3.3-3.5c1.4-0.9,3-1.6,4.8-2    c1.8-0.4,3.6-0.6,5.5-0.6V117.2z M67.2,107.8v-6.5c-0.9,0.1-1.9,0.4-2.8,0.7c-0.9,0.3-1.8,0.7-2.5,1.3c-0.8,0.5-1.4,1.2-1.9,1.9    c-0.5,0.7-0.8,1.6-1,2.6H67.2z"></path>
		<path class="st2" d="M88.6,117.2h-3.3V111H77v6.2h-3.3v-8c0-2,0.4-3.7,1.3-5.1c0.8-1.4,2-2.6,3.3-3.5c1.4-0.9,3-1.6,4.8-2    c1.8-0.4,3.6-0.6,5.5-0.6V117.2z M85.3,107.8v-6.5c-0.9,0.1-1.9,0.4-2.8,0.7s-1.8,0.7-2.5,1.3c-0.8,0.5-1.4,1.2-1.9,1.9    c-0.5,0.7-0.8,1.6-1,2.6H85.3z"></path>
		<path class="st2" d="M95.3,105.7l7.7-7.6h4.6l-8.4,8.1c0.7,0,1.5,0.1,2.4,0.2c0.9,0.1,1.7,0.4,2.5,0.8c0.8,0.4,1.4,1,1.9,1.7    c0.5,0.8,0.8,1.8,0.8,3v5.3h-3.3v-4.8c0-0.7-0.2-1.3-0.5-1.8c-0.3-0.4-0.7-0.8-1.3-1s-1.1-0.4-1.7-0.4c-0.6-0.1-1.2-0.1-1.8-0.1    c-0.3,0-0.7,0-1,0c-0.3,0-0.6,0-0.8,0l-1.1,1v7.2H92V98.1h3.2V105.7z"></path>
		<path class="st2" d="M124.2,117.2h-5c-1.3,0-2.5-0.2-3.6-0.6c-1.1-0.4-2-1-2.8-1.9c-0.8-0.8-1.4-1.8-1.8-3c-0.4-1.2-0.6-2.5-0.6-4    s0.2-2.8,0.7-4c0.4-1.2,1-2.2,1.8-3c0.8-0.8,1.7-1.5,2.8-1.9c1.1-0.4,2.2-0.7,3.5-0.7h5.1v3.3h-5c-1.1,0-2,0.2-2.7,0.6    c-0.7,0.4-1.3,0.9-1.7,1.6c-0.4,0.6-0.7,1.3-0.9,2.1c-0.2,0.8-0.3,1.5-0.3,2.1c0,0.6,0.1,1.2,0.2,1.9c0.2,0.7,0.4,1.4,0.9,2    c0.4,0.6,1,1.2,1.7,1.6c0.7,0.4,1.7,0.6,2.8,0.6h5V117.2z"></path>
		<path class="st2" d="M140.8,117.2h-3.3V111h-8.3v6.2H126v-8c0-2,0.4-3.7,1.3-5.1c0.8-1.4,2-2.6,3.3-3.5c1.4-0.9,3-1.6,4.8-2    c1.8-0.4,3.6-0.6,5.5-0.6V117.2z M137.6,107.8v-6.5c-0.9,0.1-1.9,0.4-2.8,0.7s-1.8,0.7-2.5,1.3c-0.8,0.5-1.4,1.2-1.9,1.9    c-0.5,0.7-0.8,1.6-1,2.6H137.6z"></path>
		<path class="st2" d="M159.3,98.1v19.2h-3.2v-1.6c-0.5,0.6-1.2,1.1-2,1.4c-0.8,0.3-1.7,0.5-2.6,0.5c-1.2,0-2.3-0.1-3.2-0.4    c-0.9-0.3-1.7-0.8-2.3-1.4c-0.6-0.6-1-1.5-1.3-2.5c-0.3-1-0.4-2.3-0.4-3.7V98.1h3.3v11.3c0,1.1,0.1,1.9,0.4,2.5    c0.2,0.6,0.6,1.1,1,1.5s0.8,0.6,1.3,0.7c0.5,0.1,1,0.2,1.5,0.2c0.4,0,0.8-0.1,1.3-0.2c0.5-0.1,1-0.3,1.4-0.6    c0.4-0.3,0.8-0.6,1.1-1c0.3-0.4,0.5-0.9,0.5-1.5V98.1H159.3z"></path>
	</g>
	<g>
		
			<image style="overflow:visible;" width="555" height="226" transform="matrix(0.2325 0 0 0.2325 41.6761 40.5662)">
		</image>
		<polygon class="st3" points="52.3,84.3 162.2,84.3 142.1,80.5 153.7,78.3 135.8,76.9 148.1,72.1 128.7,74.5 140.1,66.5     126.5,69.4 133.4,61.1 118.8,66.2 122.4,55.2 111.9,65.3 107.2,50 103.9,65.1 92.3,54.7 95,65.8 78.7,60.7 87.3,69.4 70.9,66     79.3,73.5 60.8,71.3 71.5,76.3 56.3,75.9 67.4,80.9   "></polygon>
	</g>
	<g>
		
			<image style="overflow:visible;" width="555" height="225" transform="matrix(0.2325 0 0 0.2325 44.0009 121.0018)">
		</image>
		<polygon class="st3" points="162.4,129.7 52.5,129.7 72.6,133.5 61,135.7 78.9,137.1 66.6,141.9 86,139.5 74.7,147.5 88.2,144.6     81.3,152.9 95.9,147.7 92.4,158.8 102.8,148.7 107.5,163.9 110.8,148.9 122.4,159.3 119.7,148.2 136,153.3 127.4,144.6 143.8,148     135.4,140.4 153.9,142.7 143.3,137.7 158.4,138.1 147.3,133.1   "></polygon>
	</g>
</g>
</svg>
